<svg xmlns="http://www.w3.org/2000/svg" width="120" height="37" fill="none"><path fill="#fff" fill-rule="evenodd" d="M0 18.197C0 8.147 8.161 0 18.228 0c10.067 0 18.228 8.147 18.228 18.197 0 10.05-8.161 18.196-18.228 18.196C8.16 36.393 0 28.247 0 18.197Zm13.4-4.083c-.412.06-.823.094-1.233.094-.55 0-1.098-.06-1.644-.19-.866-.208-1.65-.587-2.386-1.074-.096-.063-.273-.126-.338-.082-.086.057-.134.222-.136.341-.012.692-.006 1.384-.006 2.076v2.556l-.001 5.49c-.001.375.13.68.451.88 1.347.84 2.821 1.208 4.408 1.14 1.236-.052 2.43-.326 3.598-.704 1.3-.421 2.59-.876 3.886-1.31 1.134-.378 2.288-.688 3.483-.8 1.743-.164 3.387.15 4.892 1.078.348.215.495.129.495-.269V17.836c0-1.54-.002-3.08.002-4.618 0-.44-.19-.758-.553-1.004-1.97-1.331-4.118-1.497-6.342-.877-1.299.362-2.563.847-3.828 1.317-1.556.577-3.09 1.213-4.748 1.46ZM48.562 9.464l.033-.002.033.002a.44.44 0 0 0 .032.002h.275l-.047.01c4.525.159 8.148 3.915 8.148 8.537 0 4.63-3.635 8.392-8.17 8.538l.069.017H42.532V9.466h5.998l.032-.002Zm14.778 7.178c.089-3.98 3.293-7.18 7.243-7.18s7.155 3.2 7.244 7.18h.008v9.922H74.21v-3.668h-7.254v3.668h-3.625v-9.922h.008Zm3.616.146v2.436h7.254v-2.436h-.002c-.01-2.019-1.629-3.652-3.625-3.652-1.995 0-3.614 1.633-3.626 3.652Zm45.242-7.326c-3.949 0-7.155 3.2-7.243 7.18h-.009v9.922h3.625v-3.668h7.254v3.668h3.626v-9.922h-.009c-.089-3.98-3.295-7.18-7.244-7.18Zm-3.627 7.326v2.436h7.254v-2.436h-.002c-.011-2.019-1.629-3.652-3.625-3.652-1.995 0-3.614 1.633-3.625 3.652h-.002Zm-24.422-.146h.01c.088-3.98 3.293-7.18 7.243-7.18s7.155 3.2 7.244 7.18h.008v9.923h-3.626v-9.778c-.013-2.018-1.63-3.651-3.626-3.651s-3.614 1.633-3.626 3.65h-.001v9.779h-3.626v-9.923Zm-38-2.822v-.682l2.736.012c2.523.153 4.525 2.27 4.525 4.863 0 2.588-1.99 4.7-4.505 4.864l-2.755.006v-.682l.007.002v-8.385l-.007.002Z" clip-rule="evenodd"/></svg>